<?xml version="1.0" encoding="UTF-8" standalone="no"?>
<svg xmlns:dc="http://purl.org/dc/elements/1.1/" xmlns:cc="http://creativecommons.org/ns#" xmlns:rdf="http://www.w3.org/1999/02/22-rdf-syntax-ns#" xmlns:svg="http://www.w3.org/2000/svg" xmlns="http://www.w3.org/2000/svg" width="250mm" height="250mm" viewBox="0 0 250 250" version="1.1" id="svg8">
  <defs id="defs2">
    <filter style="color-interpolation-filters:sRGB" id="filter1569" x="-0.0852" width="1.1704" y="-0.0852" height="1.1704">
      <feGaussianBlur stdDeviation="9.9978348" id="feGaussianBlur1571" />
    </filter>
  </defs>
  <metadata id="metadata5">
    <rdf:RDF>
      <cc:Work rdf:about="">
        <dc:format>image/svg+xml</dc:format>
        <dc:type rdf:resource="http://purl.org/dc/dcmitype/StillImage" />
        <dc:title></dc:title>
      </cc:Work>
    </rdf:RDF>
  </metadata>
  <circle style="color:#000000;display:inline;overflow:visible;visibility:visible;opacity:1;vector-effect:none;fill:#bcdbfd;fill-opacity:1;fill-rule:evenodd;stroke:none;stroke-width:11.11250019;stroke-linecap:butt;stroke-linejoin:miter;stroke-miterlimit:4;stroke-dasharray:none;stroke-dashoffset:0;stroke-opacity:1;marker:none;filter:url(#filter1569);enable-background:accumulate" id="path66" r="140.81458" cy="152.33109" cx="118.51502" transform="matrix(0.81976584,0,0,0.81976584,27.845429,0.12417558)" />
  <path d="M 116.43823,224.85486 58.570403,234.22845 0.70256922,243.60204 21.357738,187.80642 42.012912,132.0108 79.225573,178.43283 Z" id="path4485-6" style="color:#000000;display:inline;overflow:visible;visibility:visible;opacity:1;vector-effect:none;fill:#ff1d1d;fill-opacity:0.98688522;fill-rule:evenodd;stroke:none;stroke-width:2.98762584;stroke-linecap:round;stroke-linejoin:miter;stroke-miterlimit:4;stroke-dasharray:none;stroke-dashoffset:0;stroke-opacity:0.98596491;marker:none;enable-background:accumulate" />
  <path d="M 175.89677,101.48076 114.17024,114.02109 52.44372,126.56141 72.231364,65.774454 92.019012,4.987458 133.95789,53.23411 Z" id="path4485-6-5" style="color:#000000;display:inline;overflow:visible;visibility:visible;opacity:1;vector-effect:none;fill:#ff1d1d;fill-opacity:0.98688522;fill-rule:evenodd;stroke:none;stroke-width:3.21010494;stroke-linecap:round;stroke-linejoin:miter;stroke-miterlimit:4;stroke-dasharray:none;stroke-dashoffset:0;stroke-opacity:0.98596491;marker:none;enable-background:accumulate" />
  <path d="m 244.16552,226.89248 -60.51742,-8.56082 -60.5174,-8.56079 37.81959,-49.16854 37.81963,-49.16854 22.69781,57.72935 z" id="path4485-6-3" style="color:#000000;display:inline;overflow:visible;visibility:visible;opacity:1;vector-effect:none;fill:#ff1d1d;fill-opacity:0.98688522;fill-rule:evenodd;stroke:none;stroke-width:3.11492586;stroke-linecap:round;stroke-linejoin:miter;stroke-miterlimit:4;stroke-dasharray:none;stroke-dashoffset:0;stroke-opacity:0.98596491;marker:none;enable-background:accumulate" />
  <g id="text4499-0" style="font-style:normal;font-variant:normal;font-weight:bold;font-stretch:normal;font-size:198.90023804px;line-height:125%;font-family:Hack;-inkscape-font-specification:'Hack Bold';text-align:center;letter-spacing:0px;word-spacing:0px;text-anchor:middle;fill:#fffdfd;fill-opacity:1;stroke:none;stroke-width:12.43126488px;stroke-linecap:butt;stroke-linejoin:miter;stroke-opacity:1" aria-label="T">
    <path d="M 59.164062,51.863281 A 12.446499,12.446499 0 0 0 46.738281,63.621094 l -2.984375,53.902346 a 12.446499,12.446499 0 0 0 12.425782,13.13281 h 10.542968 a 12.446499,12.446499 0 0 0 12.257813,-10.29102 c 2.451305,-13.95357 4.537482,-19.28676 8.148437,-24.55273 a 12.446499,12.446499 0 0 0 0.0918,-0.134766 c 2.886363,-4.329544 5.090828,-6.406868 7.433594,-7.490234 v 91.08594 c 0,3.10515 -0.03956,3.44779 -0.0625,5.18554 -1.634478,0.11433 -2.518591,0.27149 -5.394531,0.27149 h -4.375 a 12.446499,12.446499 0 0 0 -12.445313,12.44531 v 10.74024 a 12.446499,12.446499 0 0 0 12.445313,12.44531 h 80.355464 a 12.446499,12.446499 0 0 0 12.44532,-12.44531 v -10.74024 a 12.446499,12.446499 0 0 0 -12.44532,-12.44531 h -4.375 c -2.87594,0 -3.76005,-0.15716 -5.39453,-0.27149 -0.0229,-1.73775 -0.0625,-2.08039 -0.0625,-5.18554 V 88 c 1.86662,0.858138 3.62432,2.520629 6.3125,5.955078 4.18415,5.546444 6.55711,11.262692 9.38282,26.521482 a 12.446499,12.446499 0 0 0 12.23632,10.17969 h 10.54297 a 12.446499,12.446499 0 0 0 12.42578,-13.13281 L 203.26172,63.621094 A 12.446499,12.446499 0 0 0 190.83594,51.863281 Z" id="path4930" style="font-style:normal;font-variant:normal;font-weight:bold;font-stretch:normal;font-family:'Century Schoolbook L';-inkscape-font-specification:'Century Schoolbook L Bold';fill:#fffdfd;fill-opacity:1;stroke-width:12.43126488px" />
  </g>
  <text id="text4499" y="207.77335" x="125.06526" style="font-style:normal;font-variant:normal;font-weight:bold;font-stretch:normal;font-size:198.90023804px;line-height:125%;font-family:Hack;-inkscape-font-specification:'Hack Bold';text-align:center;letter-spacing:0px;word-spacing:0px;text-anchor:middle;fill:#000000;fill-opacity:1;stroke:none;stroke-width:12.43126488px;stroke-linecap:butt;stroke-linejoin:miter;stroke-opacity:1" xml:space="preserve"><tspan style="font-style:normal;font-variant:normal;font-weight:bold;font-stretch:normal;font-family:'Century Schoolbook L';-inkscape-font-specification:'Century Schoolbook L Bold';stroke-width:12.43126488px" y="207.77335" x="125.06526" id="tspan4497">T</tspan></text>
</svg>
